<svg width="155" height="80" viewBox="0 0 155 80" fill="none" xmlns="http://www.w3.org/2000/svg">
<path d="M99.5363 33.5716C90.6505 33.5716 83.453 26.5268 83.453 17.8295C83.453 9.13216 90.6505 2.08735 99.5363 2.08735C108.422 2.08735 115.62 9.13216 115.62 17.8295C115.62 26.5268 108.422 33.5716 99.5363 33.5716ZM54.574 33.5716C45.6882 33.5716 38.4907 26.5268 38.4907 17.8295C38.4907 9.13216 45.6882 2.08735 54.574 2.08735C63.4599 2.08735 70.6574 9.13216 70.6574 17.8295C70.6574 26.5268 63.4599 33.5716 54.574 33.5716ZM122.462 14.8724C122.373 14.4375 120.862 14.9594 118.73 13.8287C116.775 12.785 116.686 10.0889 114.465 7.65362C111.177 3.04405 105.756 0 99.5363 0C93.4051 0 87.9848 2.95708 84.697 7.47968L84.6081 7.56665C83.3641 8.95822 82.2978 12.1762 77.8549 12.0892C77.4995 12.0892 77.0552 12.0892 76.4332 12.0892C71.9903 12.1762 70.924 8.95822 69.68 7.56665C69.68 7.47968 69.5911 7.47968 69.5911 7.47968C66.1256 2.95708 60.7053 0 54.574 0C48.354 0 42.8448 3.04405 39.557 7.65362C37.3355 10.0889 37.2467 12.785 35.2918 13.8287C33.1592 14.9594 31.6486 14.4375 31.5598 14.8724C31.4709 15.3072 31.2043 20.0908 31.5598 20.3517C31.9152 20.6996 34.4921 19.1341 35.825 21.3954C38.0464 25.2222 39.0239 27.8314 39.9124 28.5271C43.289 32.8758 48.5317 35.6589 54.4852 35.6589C63.4599 35.6589 70.924 29.3099 72.4346 21.0475C73.1454 18.6122 73.9452 16.177 76.9663 16.09C79.9875 16.177 80.7872 18.6122 81.4981 21.0475C83.0976 29.3969 90.5616 35.6589 99.5363 35.6589C105.49 35.6589 110.821 32.8758 114.109 28.5271C114.998 27.7444 116.064 25.2222 118.285 21.3084C119.529 19.1341 122.106 20.6996 122.462 20.3517C122.817 20.1777 122.639 15.3072 122.462 14.8724Z" fill="#1D329D"/>
<path d="M28.1037 55.2121C24.0959 55.2121 21.2122 57.1802 19.7459 59.9448C18.2308 56.9459 15.2493 55.2121 11.5836 55.2121C7.67354 55.2121 5.18086 57.0396 4.00783 59.2419V55.6339H0V79.5314H4.20333V65.5677C4.20333 61.9597 6.74489 58.9608 10.7039 58.9608C14.2229 58.9608 16.6178 61.538 16.6178 65.5209V79.5314H20.8701V64.7243C21.2122 61.4911 23.5094 58.9608 27.1262 58.9608C30.8897 58.9608 33.1868 61.538 33.1868 65.5209V79.5314H37.3902V64.9586C37.3902 59.1482 33.6267 55.2121 28.1037 55.2121Z" fill="#1D329D"/>
<path d="M66.0594 79.5314V55.6339H61.8561V69.5975C61.8561 73.1119 59.51 76.2045 55.551 76.2045C51.7876 76.2045 49.6859 73.721 49.6859 69.8318V55.6339H45.4826V70.3941C45.4826 76.1108 49.0017 80 54.5735 80C58.728 80 61.1229 77.8914 62.0516 75.9702V79.5314H66.0594Z" fill="#1D329D"/>
<path d="M102.659 55.2121C98.6509 55.2121 95.7672 57.1802 94.301 59.9448C92.7858 56.9459 89.8043 55.2121 86.1386 55.2121C82.2286 55.2121 79.7359 57.0396 78.5629 59.2419V55.6339H74.555V79.5314H78.7584V65.5677C78.7584 61.9597 81.2999 58.9608 85.2589 58.9608C88.778 58.9608 91.1729 61.538 91.1729 65.5209V79.5314H95.4251V64.7243C95.7672 61.4911 98.0644 58.9608 101.681 58.9608C105.445 58.9608 107.742 61.538 107.742 65.5209V79.5314H111.945V64.9586C111.945 59.1482 108.182 55.2121 102.659 55.2121Z" fill="#1D329D"/>
<path d="M142.276 69.129V66.9266C142.276 59.8511 137.975 55.2121 130.839 55.2121C123.752 55.2121 118.571 59.8042 118.571 67.5826C118.571 75.3611 123.801 80 130.937 80C136.704 80 141.005 76.7668 142.032 72.4559L137.828 72.2216C136.998 74.8925 134.505 76.4857 130.839 76.4857C126.44 76.4857 123.263 73.721 123.019 69.129H142.276ZM130.79 58.7265C135.531 58.7265 137.975 61.6785 138.073 65.8489H123.019C123.312 61.21 126.489 58.7265 130.79 58.7265Z" fill="#1D329D"/>
<path d="M151.261 44.3411C149.745 44.3411 148.475 45.5125 148.475 47.012C148.475 48.4646 149.697 49.636 151.261 49.636C152.776 49.636 154.047 48.4646 154.047 47.012C154.047 45.5125 152.776 44.3411 151.261 44.3411ZM153.313 79.5314V55.6339H149.11V79.5314H153.313Z" fill="#1D329D"/>
</svg>
